<svg xmlns="http://www.w3.org/2000/svg" viewBox="0 0 512 512" fill="none">
  <!-- Cryo brand mark, single-color cut (badges/stickers/engraving). -->
  <g stroke="#f3f5f9" fill="none" stroke-linecap="round" stroke-linejoin="round">
    <path d="M256 80L408.42 168V344L256 432L103.58 344V168Z" stroke-width="10"/>
    <g stroke-width="9">
      <path d="M256 192L256 80"/>
      <path d="M311.42 224L408.42 168"/>
      <path d="M311.42 288L408.42 344"/>
      <path d="M256 320L256 432"/>
      <path d="M200.58 288L103.58 344"/>
      <path d="M200.58 224L103.58 168"/>
    </g>
    <path d="M256 192L311.42 224V288L256 320L200.58 288V224Z" stroke-width="6.5"/>
    <g stroke-width="6.5">
      <path d="M285.44 130L256 147L226.56 130"/>
      <path d="M379.83 218.5L350.39 201.5L350.39 167.5"/>
      <path d="M379.83 293.5L350.39 310.5L350.39 344.5"/>
      <path d="M285.44 382L256 365L226.56 382"/>
      <path d="M132.17 293.5L161.61 310.5L161.61 344.5"/>
      <path d="M132.17 218.5L161.61 201.5L161.61 167.5"/>
    </g>
    <circle cx="408.42" cy="256" r="7.5" fill="#f3f5f9" stroke="none"/>
    <circle cx="103.58" cy="256" r="7.5" fill="#f3f5f9" stroke="none"/>
    <circle cx="332.21" cy="124" r="7.5" fill="#f3f5f9" stroke="none"/>
    <circle cx="332.21" cy="388" r="7.5" fill="#f3f5f9" stroke="none"/>
    <circle cx="179.79" cy="124" r="7.5" fill="#f3f5f9" stroke="none"/>
    <circle cx="179.79" cy="388" r="7.5" fill="#f3f5f9" stroke="none"/>
    <circle cx="256" cy="256" r="18" fill="#f3f5f9" stroke="none"/>
  </g>
</svg>
